<svg version="1.1" class="can-badge can-alert has-solid " viewBox="0 0 36 36" preserveAspectRatio="xMidYMid meet" xmlns="http://www.w3.org/2000/svg" xmlns:xlink="http://www.w3.org/1999/xlink" focusable="false" role="img" width="32" height="32" fill="currentColor"><path class="clr-i-outline clr-i-outline-path-1" d="M27.14,33H10.62C5.67,33,1,28.19,1,23.1a10,10,0,0,1,8-9.75,10.19,10.19,0,0,1,20.33,1.06A10.07,10.07,0,0,1,29,16.66a8.29,8.29,0,0,1,6,8C35,29.1,31.33,33,27.14,33ZM19.09,6.23a8.24,8.24,0,0,0-8.19,8l0,.87-.86.1A7.94,7.94,0,0,0,3,23.1c0,4,3.77,7.9,7.62,7.9H27.14C30.21,31,33,28,33,24.65a6.31,6.31,0,0,0-5.37-6.26l-1.18-.18.39-1.13A8.18,8.18,0,0,0,19.09,6.23Z"/><path class="clr-i-outline--badged clr-i-outline-path-1--badged" d="M29,16.66a10.07,10.07,0,0,0,.25-2.24c0-.33,0-.65,0-1a7.45,7.45,0,0,1-2.1-.54,8,8,0,0,1-.3,4.16l-.39,1.13,1.18.18a6.31,6.31,0,0,1,5.37,6.26C32.95,28,30.16,31,27.09,31H10.57c-3.84,0-7.62-3.91-7.62-7.9a7.94,7.94,0,0,1,7-7.89l.86-.1,0-.87a8.24,8.24,0,0,1,8.19-8A8.13,8.13,0,0,1,22.58,7a7.53,7.53,0,0,1-.08-1,7.51,7.51,0,0,1,.09-1.12A10.13,10.13,0,0,0,19,4.23,10.26,10.26,0,0,0,8.91,13.36a10,10,0,0,0-8,9.75c0,5.09,4.67,9.9,9.62,9.9H27.09c4.19,0,7.86-3.9,7.86-8.35A8.29,8.29,0,0,0,29,16.66Z" style="display:none"/><path class="clr-i-outline--alerted clr-i-outline-path-1--alerted" d="M29,16.66a10.14,10.14,0,0,0,.2-1.3h-2a8.28,8.28,0,0,1-.37,1.72l-.39,1.13,1.18.18a6.31,6.31,0,0,1,5.37,6.26C32.95,28,30.16,31,27.09,31H10.57c-3.84,0-7.62-3.91-7.62-7.9a7.94,7.94,0,0,1,7-7.89l.86-.1,0-.87A8.16,8.16,0,0,1,21,6.47l1-1.8A10.19,10.19,0,0,0,8.91,13.36a10,10,0,0,0-8,9.75c0,5.09,4.67,9.9,9.62,9.9H27.09c4.19,0,7.86-3.9,7.86-8.35A8.29,8.29,0,0,0,29,16.66Z" style="display:none"/><path class="clr-i-outline--alerted clr-i-outline-path-2--alerted clr-i-alert" d="M26.85,1.14,21.13,11A1.28,1.28,0,0,0,22.23,13H33.68A1.28,1.28,0,0,0,34.78,11L29.06,1.14A1.28,1.28,0,0,0,26.85,1.14Z" style="display:none"/><path class="clr-i-solid clr-i-solid-path-1" d="M29,16.66a10.07,10.07,0,0,0,.25-2.24A10.19,10.19,0,0,0,8.91,13.36,10,10,0,0,0,1,23.1C1,28.19,5.62,33,10.57,33H27.09C31.28,33,35,29.1,35,24.65A8.29,8.29,0,0,0,29,16.66Z" style="display:none"/><path class="clr-i-solid--badged clr-i-solid-path-1--badged" d="M29,16.66a10.07,10.07,0,0,0,.25-2.24c0-.33,0-.65,0-1a7.44,7.44,0,0,1-6.6-8.58A10.13,10.13,0,0,0,19,4.23,10.26,10.26,0,0,0,8.91,13.36,10,10,0,0,0,1,23.1C1,28.19,5.62,33,10.57,33H27.09C31.28,33,35,29.1,35,24.65A8.29,8.29,0,0,0,29,16.66Z" style="display:none"/><path class="clr-i-solid--alerted clr-i-solid-path-1--alerted" d="M29,16.66a10.15,10.15,0,0,0,.2-1.26h-7A3.68,3.68,0,0,1,19,9.89l3-5.21A10.19,10.19,0,0,0,8.91,13.36,10,10,0,0,0,1,23.1C1,28.19,5.62,33,10.57,33H27.09C31.28,33,35,29.1,35,24.65A8.29,8.29,0,0,0,29,16.66Z" style="display:none"/><path class="clr-i-solid--alerted clr-i-solid-path-2--alerted clr-i-alert" d="M26.85,1.14,21.13,11A1.28,1.28,0,0,0,22.23,13H33.68A1.28,1.28,0,0,0,34.78,11L29.06,1.14A1.28,1.28,0,0,0,26.85,1.14Z" style="display:none"/><circle class="clr-i-outline--badged clr-i-outline-path-2--badged clr-i-badge" cx="30" cy="6" r="5" style="display:none"/><circle class="clr-i-solid--badged clr-i-solid-path-2--badged clr-i-badge" cx="30" cy="6" r="5" style="display:none"/></svg>